HIERARCHY
ROOT Hips
{
	OFFSET 0.000000 0.000000 0.000000
	CHANNELS 6 Xposition Yposition Zposition Zrotation Yrotation Xrotation 
	JOINT LHipJoint
	{
		OFFSET 0.000000 0.000000 0.000000
		CHANNELS 3 Zrotation Yrotation Xrotation
		JOINT LeftUpLeg
		{
			OFFSET 1.363060 -1.794630 0.839290
			CHANNELS 3 Zrotation Yrotation Xrotation
			JOINT LeftLeg
			{
				OFFSET 2.448110 -6.726130 0.000000
				CHANNELS 3 Zrotation Yrotation Xrotation
				JOINT LeftFoot
				{
					OFFSET 2.562200 -7.039590 0.000000
					CHANNELS 3 Zrotation Yrotation Xrotation
					JOINT LeftToeBase
					{
						OFFSET 0.157640 -0.433110 2.322550
						CHANNELS 3 Zrotation Yrotation Xrotation
						End Site
						{
							OFFSET 0.000000 0.000000 0.000000
						}
					}
				}
			}
		}
	}
	JOINT RHipJoint
	{
		OFFSET 0.000000 0.000000 0.000000
		CHANNELS 3 Zrotation Yrotation Xrotation
		JOINT RightUpLeg
		{
			OFFSET -1.305520 -1.794630 0.839290
			CHANNELS 3 Zrotation Yrotation Xrotation
			JOINT RightLeg
			{
				OFFSET -2.542530 -6.985550 0.000000
				CHANNELS 3 Zrotation Yrotation Xrotation
				JOINT RightFoot
				{
					OFFSET -2.568260 -7.056230 0.000000
					CHANNELS 3 Zrotation Yrotation Xrotation
					JOINT RightToeBase
					{
						OFFSET -0.164730 -0.452590 2.363150
						CHANNELS 3 Zrotation Yrotation Xrotation
						End Site
						{
							OFFSET 0.000000 0.000000 0.000000
						}
					}
				}
			}
		}
	}
	JOINT LowerBack
	{
		OFFSET 0.000000 0.000000 0.000000
		CHANNELS 3 Zrotation Yrotation Xrotation
		JOINT Spine
		{
			OFFSET 0.028270 2.035590 -0.193380
			CHANNELS 3 Zrotation Yrotation Xrotation
			JOINT Spine1
			{
				OFFSET 0.056720 2.048850 -0.042750
				CHANNELS 3 Zrotation Yrotation Xrotation
				JOINT Neck
				{
					OFFSET 0.000000 0.000000 0.000000
					CHANNELS 3 Zrotation Yrotation Xrotation
					JOINT Neck1
					{
						OFFSET -0.054170 1.746240 0.172020
						CHANNELS 3 Zrotation Yrotation Xrotation
						JOINT Head
						{
							OFFSET 0.104070 1.761360 -0.123970
							CHANNELS 3 Zrotation Yrotation Xrotation
							End Site
							{
								OFFSET 0.000000 0.000000 0.000000
							}
						}
					}
				}
				JOINT LeftShoulder
				{
					OFFSET 0.000000 0.000000 0.000000
					CHANNELS 3 Zrotation Yrotation Xrotation
					JOINT LeftArm
					{
						OFFSET 3.362410 1.200890 -0.311210
						CHANNELS 3 Zrotation Yrotation Xrotation
						JOINT LeftForeArm
						{
							OFFSET 4.983000 -0.000000 -0.000000
							CHANNELS 3 Zrotation Yrotation Xrotation
							JOINT LeftHand
							{
								OFFSET 3.483560 -0.000000 -0.000000
								CHANNELS 3 Zrotation Yrotation Xrotation
								JOINT LeftFingerBase
								{
									OFFSET 0.000000 0.000000 0.000000
									CHANNELS 3 Zrotation Yrotation Xrotation
									JOINT LeftHandIndex1
									{
										OFFSET 0.715260 -0.000000 -0.000000
										CHANNELS 3 Zrotation Yrotation Xrotation
										End Site
										{
											OFFSET 0.000000 0.000000 0.000000
										}
									}
								}
								JOINT LThumb
								{
									OFFSET 0.000000 0.000000 0.000000
									CHANNELS 3 Zrotation Yrotation Xrotation
									End Site
									{
										OFFSET 0.000000 0.000000 0.000000
									}
								}
							}
						}
					}
				}
				JOINT RightShoulder
				{
					OFFSET 0.000000 0.000000 0.000000
					CHANNELS 3 Zrotation Yrotation Xrotation
					JOINT RightArm
					{
						OFFSET -3.136600 1.374050 -0.404650
						CHANNELS 3 Zrotation Yrotation Xrotation
						JOINT RightForeArm
						{
							OFFSET -5.241900 -0.000000 -0.000000
							CHANNELS 3 Zrotation Yrotation Xrotation
							JOINT RightHand
							{
								OFFSET -3.444170 -0.000000 -0.000000
								CHANNELS 3 Zrotation Yrotation Xrotation
								JOINT RightFingerBase
								{
									OFFSET 0.000000 0.000000 0.000000
									CHANNELS 3 Zrotation Yrotation Xrotation
									JOINT RightHandIndex1
									{
										OFFSET -0.622530 -0.000000 -0.000000
										CHANNELS 3 Zrotation Yrotation Xrotation
										End Site
										{
											OFFSET 0.000000 0.000000 0.000000
										}
									}
								}
								JOINT RThumb
								{
									OFFSET 0.000000 0.000000 0.000000
									CHANNELS 3 Zrotation Yrotation Xrotation
									End Site
									{
										OFFSET 0.000000 0.000000 0.000000
									}
								}
							}
						}
					}
				}
			}
		}
	}
}
MOTION
Frames: 7
Frame Time: 0.008333
0.190766 18.355944 9.030418 -9.081709 0.515667 14.871825 5.735809 4.746744 -1.496817 -16.113258 -42.965598 14.768868 -3.666283 -1.950285 -2.729219 -14.756546 43.940421 -25.452728 0.183700 2.760300 7.612000 -0.382851 -4.363524 -0.251405 22.171988 27.934765 0.331486 3.605562 -0.921510 3.380557 8.304069 -25.649667 -3.329431 -0.013100 -0.739200 2.031600 0.660680 2.027649 4.670369 14.146431 6.128054 -23.308540 -10.863391 0.069837 -5.987074 -20.301105 -14.022621 1.498947 20.311230 -22.361126 12.713147 3.698900 -10.457800 4.824000 -9.761012 -7.047916 1.190601 -83.347243 11.090969 5.816126 12.687259 -14.730874 -2.412494 0.287713 1.364325 26.725433 13.513876 -10.601018 -2.932400 -7.125000 0.000000 0.000000 -9.280300 17.758800 6.088200 13.788085 7.079653 0.837265 81.012718 -12.783003 -11.664904 -14.697448 19.417954 -3.175406 0.588653 1.971947 36.203886 11.668779 -27.249787 -6.092900 7.125000 0.000000 0.000000 44.161600 -53.517800 -10.912300 
0.190134 18.355733 9.028626 -9.262320 0.627274 14.844023 5.887908 4.752265 -1.514722 -16.006036 -42.854770 14.681031 -3.667338 -1.966312 -2.727619 -14.760783 43.895619 -25.245206 0.178700 2.723000 7.508400 -0.226527 -4.358993 -0.206403 22.202306 27.968531 0.320215 3.605136 -0.933248 3.387391 8.287160 -25.609560 -3.423537 -0.019000 -0.888900 2.443200 0.195559 1.991247 4.594304 15.692926 6.368079 -23.187634 -11.304696 -0.051168 -6.033413 -20.885514 -13.898590 1.385341 20.284378 -22.236253 12.973266 3.746600 -10.385100 4.911300 -9.850127 -7.046885 1.169262 -83.718113 11.104272 5.336393 12.686758 -14.732774 -2.414517 0.304665 1.369514 26.842620 13.469378 -10.687262 -2.944100 -7.125000 0.000000 0.000000 -9.316500 17.662900 6.132500 13.504509 7.123914 0.892838 80.802248 -12.757031 -11.382389 -14.641902 19.368515 -3.157054 0.594841 1.960945 36.116726 11.530471 -27.296172 -6.024000 7.125000 0.000000 0.000000 44.067500 -53.579200 -10.953900 
0.191083 18.355523 9.027783 -9.436542 0.729606 14.821037 6.032942 4.755341 -1.538797 -15.979491 -42.835608 14.703512 -3.672210 -1.981381 -2.717877 -14.744402 43.844192 -25.204061 0.185300 2.772600 7.646200 -0.079142 -4.352880 -0.164562 22.224214 27.911943 0.263696 3.602278 -0.950288 3.401258 8.251648 -25.531788 -3.404711 -0.019800 -0.909200 2.498900 -0.235181 1.959573 4.549129 17.173797 6.597122 -23.108737 -11.709059 -0.177868 -6.118342 -21.271849 -13.849775 1.104244 20.063299 -22.175940 13.455577 3.729000 -10.327100 5.039800 -9.927942 -7.029529 1.156023 -84.116824 11.147179 4.804987 12.682163 -14.731530 -2.418701 0.314956 1.395072 26.978137 13.585244 -10.868071 -3.021400 -7.125000 0.000000 0.000000 -9.228700 17.444100 6.118000 13.205461 7.164374 0.958534 80.594301 -12.794271 -11.105488 -14.597553 19.344951 -3.146985 0.598204 1.956320 36.122572 11.546552 -27.370107 -6.043000 7.125000 0.000000 0.000000 44.139300 -53.632000 -11.041000 
0.192347 18.355101 9.027256 -9.624065 0.827067 14.767904 6.168581 4.762965 -1.546840 -15.966727 -42.835898 14.779974 -3.679145 -1.996144 -2.700551 -14.722050 43.794773 -25.251168 0.190500 2.810900 7.752600 0.057264 -4.352563 -0.109597 22.283126 27.791653 0.213740 3.599010 -0.961318 3.399831 8.226714 -25.496987 -3.290529 -0.018000 -0.865500 2.378900 -0.613948 1.933378 4.480410 18.590518 6.798189 -22.909741 -12.125371 -0.302159 -6.219925 -22.005489 -13.741950 1.010039 20.343425 -22.099759 13.719760 3.848700 -10.270200 5.155600 -9.977413 -7.023451 1.127913 -84.491277 11.156935 4.334460 12.672313 -14.725216 -2.420902 0.311439 1.422605 27.056790 13.783321 -10.985573 -3.104500 -7.125000 0.000000 0.000000 -9.077300 17.287300 6.046600 12.943817 7.206239 1.000603 80.396224 -12.832139 -10.824475 -14.595703 19.371234 -3.153976 0.592309 1.961616 36.133729 11.749799 -27.398214 -6.155500 7.125000 0.000000 0.000000 44.345600 -53.613400 -11.088700 
0.189607 18.358263 9.033685 -9.519210 0.822964 14.881363 6.171953 4.766002 -1.548672 -16.066038 -42.958501 14.733749 -3.677805 -1.998101 -2.708940 -14.804180 43.946613 -25.265863 0.180500 2.736800 7.546800 0.078962 -4.342861 -0.104811 22.087315 27.824533 0.110502 3.601205 -0.947619 3.345578 8.257768 -25.570502 -3.254934 -0.017700 -0.859200 2.361400 -0.760098 1.913759 4.359892 18.747854 6.783708 -22.776503 -12.099056 -0.333467 -6.297892 -22.152377 -13.870686 0.351372 20.331539 -22.169039 14.222589 3.811600 -10.254000 5.323500 -9.972833 -6.977827 1.114670 -84.536813 11.225116 5.060685 12.817436 -14.904150 -2.461372 0.243511 1.367220 26.336095 13.822125 -10.459935 -2.968600 -7.125000 0.000000 0.000000 -9.046300 17.895000 5.903200 12.934994 7.222669 1.040825 80.171567 -12.673338 -10.611907 -14.497688 19.268556 -3.124410 0.589870 1.974351 35.828852 11.875957 -27.504471 -6.241900 7.125000 0.000000 0.000000 44.556500 -53.679500 -11.240000 
0.184864 18.365851 9.046122 -9.106840 0.781244 15.321972 6.079937 4.710243 -1.676377 -16.313518 -43.238049 14.517801 -3.668160 -1.971012 -2.722420 -14.968808 44.275094 -25.283743 0.163100 2.601700 7.171700 0.006820 -4.299341 -0.246461 21.547090 27.935157 -0.190705 3.607229 -0.936136 3.251617 8.312266 -25.688089 -3.258888 -0.015700 -0.810000 2.226200 -0.779920 1.948666 4.486991 17.835447 6.801594 -24.046802 -11.700555 -0.263822 -5.991230 -22.264195 -13.956477 0.205174 20.291081 -22.287134 14.729613 3.799100 -10.274200 5.476500 -9.788355 -6.941252 1.203158 -84.619745 11.798926 6.603331 13.096483 -15.234659 -2.552030 0.152049 1.297123 24.938539 13.915432 -9.916569 -2.833800 -7.125000 0.000000 0.000000 -8.978100 18.536400 5.728800 13.021481 7.239736 1.168260 79.972840 -12.825164 -10.276133 -14.320114 19.058497 -3.070846 0.593659 1.987676 35.063535 11.836604 -27.743025 -6.261100 7.125000 0.000000 0.000000 44.734000 -53.888300 -11.552900 
0.182862 18.370278 9.049178 -8.983131 0.834024 15.567497 6.106829 4.669923 -1.779353 -16.385266 -43.373804 14.356005 -3.663485 -1.952783 -2.703466 -15.053644 44.427002 -25.245466 0.150000 2.495900 6.878200 0.042302 -4.265378 -0.319910 21.261931 27.924565 -0.438108 3.607775 -0.948198 3.218812 8.322967 -25.720691 -3.216888 -0.014200 -0.770300 2.117100 -1.060535 1.921045 4.595344 18.139335 6.916273 -24.907460 -11.656930 -0.318662 -5.815256 -22.612025 -13.826318 0.434732 20.409365 -22.191650 14.837822 3.889900 -10.225700 5.527900 -9.714259 -6.938944 1.259222 -84.919453 12.187692 6.730412 13.114537 -15.257073 -2.585167 0.140067 1.414166 24.151922 14.538635 -10.852213 -3.244500 -7.125000 0.000000 0.000000 -8.499700 17.429200 5.626100 12.875173 7.265270 1.265264 79.774110 -13.032076 -9.766956 -14.221564 18.963474 -3.048013 0.597232 1.993022 34.614826 11.833918 -27.938597 -6.291600 7.125000 0.000000 0.000000 44.902800 -54.048000 -11.805200 
